<?xml version="1.0" encoding="UTF-8" standalone="no"?>
<!-- Created with Inkscape (http://www.inkscape.org/) -->

<svg
   width="786.27576"
   height="1001"
   id="svg2"
   version="1.1"
   inkscape:version="1.1.2 (b8e25be833, 2022-02-05)"
   sodipodi:docname="Philips_shield_(2013).svg"
   xmlns:inkscape="http://www.inkscape.org/namespaces/inkscape"
   xmlns:sodipodi="http://sodipodi.sourceforge.net/DTD/sodipodi-0.dtd"
   xmlns="http://www.w3.org/2000/svg"
   xmlns:svg="http://www.w3.org/2000/svg"
   xmlns:rdf="http://www.w3.org/1999/02/22-rdf-syntax-ns#"
   xmlns:cc="http://creativecommons.org/ns#"
   xmlns:dc="http://purl.org/dc/elements/1.1/">
  <defs
     id="defs4">
    <clipPath
       id="clipPath2855">
      <path
         id="path2857"
         d="M 0,595.28 H 841.89 V 0 H 0 Z"
         inkscape:connector-curvature="0" />
    </clipPath>
  </defs>
  <sodipodi:namedview
     id="base"
     pagecolor="#ffffff"
     bordercolor="#666666"
     borderopacity="1.0"
     inkscape:pageopacity="0.0"
     inkscape:pageshadow="2"
     inkscape:zoom="0.35"
     inkscape:cx="364.28571"
     inkscape:cy="437.14286"
     inkscape:document-units="px"
     inkscape:current-layer="layer1"
     showgrid="false"
     fit-margin-left="0.5"
     fit-margin-top="0.5"
     fit-margin-bottom="0.5"
     fit-margin-right="0.5"
     inkscape:window-width="1366"
     inkscape:window-height="705"
     inkscape:window-x="-8"
     inkscape:window-y="-8"
     inkscape:window-maximized="1"
     inkscape:pagecheckerboard="0">
    <inkscape:grid
       type="xygrid"
       id="grid2996"
       empspacing="5"
       visible="true"
       enabled="true"
       snapvisiblegridlinesonly="true"
       originx="0.49999531"
       originy="0.50000086" />
  </sodipodi:namedview>
  <metadata
     id="metadata7">
    <rdf:RDF>
      <cc:Work
         rdf:about="">
        <dc:format>image/svg+xml</dc:format>
        <dc:type
           rdf:resource="http://purl.org/dc/dcmitype/StillImage" />
        <dc:title />
      </cc:Work>
    </rdf:RDF>
  </metadata>
  <g
     inkscape:label="Layer 1"
     inkscape:groupmode="layer"
     id="layer1"
     transform="translate(-1799.5714,282.07582)">
    <g
       id="g1083"
       transform="matrix(0.78527577,0,0,0.78527577,386.51895,-60.461152)">
      <path
         sodipodi:nodetypes="ccccccc"
         inkscape:connector-curvature="0"
         id="path3084"
         d="m 1800.0714,-254.23205 c 0,0 205.4603,-27.34377 502.6042,-27.34377 298.9763,0 497.3958,27.34377 497.3958,27.34377 v 739.58361 c 0,290.65204 -225.7944,506.51062 -500,506.51062 -276.494,0 -500,-218.77495 -500,-500.0002 z"
         style="fill:#0b5ed8;fill-opacity:1;stroke:none;stroke-width:1.001" />
      <path
         id="path3086"
         style="fill:#ffffff;stroke:none;stroke-width:1.001"
         d="m 499.86133,340.49414 c -61.6809,0 -106.25977,13.48633 -106.25977,13.48633 l 7.55664,57.19922 c 2.1997,16.97232 8.09045,24.7496 26.62305,27.78515 l 64.40625,8.3711 v 4.41797 l -60.45312,8.13671 c -20.7614,2.56666 -28.46755,10.08843 -30.34376,26.62305 l -7.32421,56.73438 74.52148,9.06836 v 7.78906 l -116.14258,15.3457 c -41.0839,6.51477 -47.4347,19.0502 -54.4082,67.77735 l -11.49414,97.9375 c 157.5814,-29.70294 249.29518,-144.78907 430.02148,-144.78907 89.3046,0 163.61223,34.14725 200.07813,57.78125 C 881.86938,521.63828 739.49173,340.49414 499.86133,340.49414 Z M 387.67188,355.375 c -38.47371,9.65219 -71.97793,24.65755 -98.70313,39.76172 l 6.16211,51.38476 54.64062,-6.85937 c 19.3253,-2.92233 27.09465,-8.59719 30.34375,-26.73828 z m -113.78907,48.99219 c -64.8889,39.26414 -112.11473,91.31331 -143.86133,143.77929 l 83.28711,-10.98046 c 15.348,-2.79288 28.44534,-6.18851 36.30664,-14.9004 9.282,-10.86843 11.13783,-19.32961 13.54493,-36.79687 z m 22.30664,47.96875 4.7168,34.1289 c 3.2841,28.36259 15.98322,44.14022 38.57813,48.85743 l 47.84374,6.98632 -6.49414,-50.7207 c -2.4938,-20.00368 -9.13988,-29.15722 -27.86718,-31.23828 z M 120.97656,563.70898 c -26.977898,50.70554 -43.840848,95.43817 -50.718748,155.34375 34.038298,13.76594 87.502128,28.92383 146.515628,28.92383 34.0617,-0.33326 61.41211,-5.08594 61.41211,-5.08594 L 264.8125,637.86914 c -4.792,-33.52148 -8.26628,-38.83877 -16.20898,-47.76172 -8.2718,-9.08734 -20.60378,-12.66945 -37.64258,-14.88867 z m 611.86328,101.37696 c -198.046,0 -288.92512,150.78515 -490.14062,150.78515 -82.9927,0 -139.01288,-22.93516 -176.363282,-42.3164 0.291899,16.34179 1.682637,41.31804 3.023437,53.47851 52.477805,32.33302 118.067255,52.54688 196.939455,52.54688 204.0587,0 287.06382,-149.73828 490.60742,-149.73828 68.0688,0 123.13289,15.53738 176.24609,41.61914 -0.7541,-18.0199 -1.35059,-36.0387 -3.37109,-54.0586 -46.5749,-28.88442 -115.51101,-52.3164 -196.94141,-52.3164 z m 48.99805,130.91211 c -33.1717,0 -62.3125,4.93359 -62.3125,4.93359 l 14.4668,112.45703 c 5.576,42.63143 16.49914,53.40293 60.33984,58.53125 l 85.16602,11.17969 c 33.5399,-62.3125 43.32107,-104.89408 50.63867,-157.3418 -31.3483,-13.84957 -98.79143,-29.75976 -148.29883,-29.75976 z m -69.38281,6.08398 c -143.2763,25.45152 -235.96127,147.13672 -427.32227,147.13672 -73.4883,0 -149.63132,-24.53826 -202.636716,-58.01172 60.199796,201.52507 234.033346,315.81247 417.248046,315.81247 96.536,0 173.59155,-32.7572 209.75195,-54.4101 l -12.33203,-92.8926 c -3.9154,-36.0604 -20.95192,-48.1764 -57.54492,-52.1191 L 529.29883,993.62305 v -8.05664 l 117.55469,-14.96094 c 36.7735,-6.10602 45.1751,-19.38418 50.4746,-49.98242 z M 870.9082,997.86914 786.60547,1008.748 c -40.6509,5.1743 -47.37,20.2988 -53.43359,62.1485 l -9.20899,74.1504 c 56.7493,-36.6342 104.26481,-78.1694 146.94531,-147.17776 z m -264.48047,21.07426 h 3.78321 l 6.37109,50.0254 c 2.0615,11.577 7.18972,18.5625 20.47852,20.623 l 50.23828,6.4609 v 3.6172 l -46.69141,5.918 c -13.7697,2.5122 -21.26942,4.0121 -24.26562,23.5234 l -6.33594,47.8321 h -3.54883 l -5.87109,-46.6407 c -1.6525,-15.0786 -7.48122,-22.4398 -23.35742,-24.4746 l -48.09375,-6.1582 v -3.6172 l 49.98046,-6.7422 c 13.313,-2.2118 18.12343,-7.139 20.76563,-19.4394 z"
         transform="translate(1800.0714,-281.57582)" />
      <path
         id="path2859"
         style="fill:#ffffff;stroke-width:2.16382"
         d="m 1930.2836,-163.27782 c -18.4789,0 -40.7445,1.27582 -56.6702,3.17998 V -7.8305 h 46.4798 v -36.30787 h 16.5521 c 43.2764,0 70.6489,-22.30933 70.6489,-61.17154 0,-42.67054 -29.2767,-57.96791 -77.0106,-57.96791 z m 597.735,0 c -18.4574,0 -40.7459,1.27582 -56.65,3.17998 V -7.8305 h 46.4798 v -36.30787 h 16.5521 c 43.2548,0 70.649,-22.30933 70.649,-61.17154 0,-42.67054 -29.2754,-57.96791 -77.0309,-57.96791 z m 154.0635,0 c -37.5639,0 -63.0319,14.82066 -63.0319,45.87148 0,53.51127 72.5955,42.69253 72.5955,67.53319 0,9.54245 -7.0325,14.62757 -24.2132,14.62757 -15.2549,0 -38.8398,-5.08396 -52.8397,-12.09474 l 5.1062,35.05245 c 14,5.10662 33.0842,7.63905 48.3824,7.63905 38.8189,0 70.6489,-12.74469 70.6489,-50.97939 0,-50.93633 -73.224,-41.3938 -73.224,-65.60696 0,-8.28743 8.289,-12.11839 21.6397,-12.11839 14.6491,0 30.5748,3.20387 41.3939,7.68298 l -3.8086,-33.14986 c -12.1173,-2.55332 -22.9368,-4.45738 -42.6492,-4.45738 z m -656.3298,3.17998 V -7.8305 h 46.4781 v -59.89414 h 48.384 V -7.8305 h 46.4781 v -152.26734 h -46.4781 v 60.5227 h -48.384 v -60.5227 z m 175.7015,0 V -7.8305 h 46.4798 v -152.26734 z m 80.8412,0 V -7.8305 h 84.043 l 6.9886,-30.59506 h -44.5536 v -121.67228 z m 107.6056,0 V -7.8305 h 46.4578 v -152.26734 z m -462.1701,25.49053 c 22.9149,0 33.7565,10.81807 33.7565,29.94623 0,19.73405 -9.565,33.1279 -33.7565,33.1279 h -7.6373 v -62.92374 c 2.7048,-0.15147 5.2571,-0.15039 7.6373,-0.15039 z m 597.735,0 c 22.9149,0 33.7548,10.81807 33.7548,29.94623 0,19.73405 -9.5417,33.1279 -33.7548,33.1279 h -7.6171 v -62.92374 c 2.7048,-0.15147 5.2369,-0.15039 7.6171,-0.15039 z" />
    </g>
  </g>
</svg>
