<svg xmlns="http://www.w3.org/2000/svg" viewBox="0 0 320 110" role="img" aria-labelledby="title">
  <title id="title">Philips</title>
  <rect x="14" y="16" width="292" height="78" rx="16" fill="#1564d4"/>
  <text x="160" y="57" text-anchor="middle"
    font-family="Arial Black, Arial, Helvetica, sans-serif"
    font-size="40"
    font-weight="900"
    letter-spacing="2"
    fill="#fff">PHILIPS</text>
  <path fill="#fff" opacity=".96" d="M44 74c37 13 69 12 101-2 38-17 73-28 131-5v11c-58-22-92-10-130 7-35 15-69 16-103 4z"/>
  <path fill="#1564d4" d="M103 78c0-8 2-10 10-11-8-1-10-3-10-11-1 8-3 10-11 11 8 1 10 3 11 11z"/>
  <path fill="#1564d4" d="M243 88c0-7 2-9 9-10-7-1-9-3-9-10-1 7-3 9-10 10 7 1 9 3 10 10z"/>
</svg>
