<svg xmlns="http://www.w3.org/2000/svg" viewBox="0 0 960 640" role="img" aria-labelledby="title desc">
  <title id="title">Market Master ecommerce system preview</title>
  <desc id="desc">A polished ecommerce dashboard illustration for the Market Master full-stack project.</desc>
  <defs>
    <linearGradient id="paper" x1="0" y1="0" x2="1" y2="1">
      <stop offset="0" stop-color="#fffdf8"/>
      <stop offset="0.58" stop-color="#f3f8f5"/>
      <stop offset="1" stop-color="#eaf2ee"/>
    </linearGradient>
    <linearGradient id="blueTeal" x1="0" y1="0" x2="1" y2="1">
      <stop offset="0" stop-color="#225f8f"/>
      <stop offset="1" stop-color="#24706d"/>
    </linearGradient>
    <linearGradient id="copper" x1="0" y1="0" x2="1" y2="1">
      <stop offset="0" stop-color="#c6864d"/>
      <stop offset="1" stop-color="#8f3d52"/>
    </linearGradient>
    <filter id="shadow" x="-20%" y="-20%" width="140%" height="150%">
      <feDropShadow dx="0" dy="24" stdDeviation="22" flood-color="#17212b" flood-opacity="0.14"/>
    </filter>
  </defs>
  <rect width="960" height="640" rx="34" fill="url(#paper)"/>
  <path d="M86 86h788v468H86z" rx="26" fill="#fffdf8" opacity="0.72"/>
  <g filter="url(#shadow)">
    <rect x="122" y="104" width="716" height="424" rx="22" fill="#fffdf8" stroke="#d9e1e4" stroke-width="2"/>
    <rect x="122" y="104" width="716" height="72" rx="22" fill="#f7f5ef"/>
    <circle cx="158" cy="140" r="8" fill="#8f3d52"/>
    <circle cx="184" cy="140" r="8" fill="#b87945"/>
    <circle cx="210" cy="140" r="8" fill="#24706d"/>
    <text x="260" y="148" font-family="Inter, Arial, sans-serif" font-size="27" font-weight="800" fill="#163d5c">Market Master</text>
    <rect x="650" y="124" width="138" height="32" rx="16" fill="#e8f1ee"/>
    <text x="678" y="146" font-family="Inter, Arial, sans-serif" font-size="15" font-weight="700" fill="#24706d">eCommerce</text>
  </g>
  <g>
    <rect x="164" y="218" width="202" height="238" rx="18" fill="#ffffff" stroke="#d9e1e4" stroke-width="2"/>
    <rect x="190" y="244" width="150" height="96" rx="14" fill="url(#blueTeal)" opacity="0.92"/>
    <path d="M226 324h78l-13-39h-52z" fill="#fffdf8" opacity="0.88"/>
    <circle cx="242" cy="350" r="7" fill="#fffdf8"/>
    <circle cx="292" cy="350" r="7" fill="#fffdf8"/>
    <rect x="190" y="372" width="128" height="13" rx="6.5" fill="#17212b" opacity="0.22"/>
    <rect x="190" y="398" width="90" height="12" rx="6" fill="#225f8f" opacity="0.24"/>
    <rect x="190" y="426" width="126" height="28" rx="14" fill="#17212b"/>
  </g>
  <g>
    <rect x="408" y="218" width="388" height="238" rx="18" fill="#ffffff" stroke="#d9e1e4" stroke-width="2"/>
    <text x="438" y="258" font-family="Inter, Arial, sans-serif" font-size="21" font-weight="800" fill="#17212b">Storefront + Database</text>
    <rect x="438" y="286" width="112" height="86" rx="14" fill="#f3f8f5" stroke="#d9e1e4"/>
    <rect x="570" y="286" width="112" height="86" rx="14" fill="#f3f8f5" stroke="#d9e1e4"/>
    <rect x="438" y="392" width="244" height="34" rx="17" fill="#f7f5ef" stroke="#d9e1e4"/>
    <path d="M724 288h22l8 40h42l-9 38h-46z" fill="none" stroke="#225f8f" stroke-width="9" stroke-linecap="round" stroke-linejoin="round"/>
    <circle cx="748" cy="382" r="9" fill="#b87945"/>
    <circle cx="785" cy="382" r="9" fill="#b87945"/>
    <text x="464" y="337" font-family="Inter, Arial, sans-serif" font-size="15" font-weight="760" fill="#225f8f">Guest</text>
    <text x="598" y="337" font-family="Inter, Arial, sans-serif" font-size="15" font-weight="760" fill="#24706d">User</text>
    <text x="463" y="415" font-family="Inter, Arial, sans-serif" font-size="15" font-weight="760" fill="#697784">Admin / Orders / Checkout</text>
  </g>
  <g opacity="0.92">
    <rect x="198" y="494" width="136" height="38" rx="19" fill="#fffdf8" stroke="#d9e1e4"/>
    <text x="226" y="519" font-family="Inter, Arial, sans-serif" font-size="15" font-weight="760" fill="#163d5c">Full-stack</text>
    <rect x="360" y="494" width="128" height="38" rx="19" fill="#fffdf8" stroke="#d9e1e4"/>
    <text x="390" y="519" font-family="Inter, Arial, sans-serif" font-size="15" font-weight="760" fill="#24706d">Prototype</text>
    <rect x="514" y="494" width="118" height="38" rx="19" fill="#fffdf8" stroke="#d9e1e4"/>
    <text x="554" y="519" font-family="Inter, Arial, sans-serif" font-size="15" font-weight="760" fill="#b87945">Demo</text>
  </g>
</svg>
